<?xml version="1.0" encoding="UTF-8" standalone="no"?>
<!-- Created with Inkscape (http://www.inkscape.org/) -->

<svg
   width="210mm"
   height="297mm"
   viewBox="0 0 210 297"
   version="1.1"
   id="svg5"
   xml:space="preserve"
   inkscape:version="1.2.2 (b0a84865, 2022-12-01)"
   sodipodi:docname="app.svg"
   xmlns:inkscape="http://www.inkscape.org/namespaces/inkscape"
   xmlns:sodipodi="http://sodipodi.sourceforge.net/DTD/sodipodi-0.dtd"
   xmlns:xlink="http://www.w3.org/1999/xlink"
   xmlns="http://www.w3.org/2000/svg"
   xmlns:svg="http://www.w3.org/2000/svg"><sodipodi:namedview
     id="namedview7"
     pagecolor="#505050"
     bordercolor="#eeeeee"
     borderopacity="1"
     inkscape:showpageshadow="0"
     inkscape:pageopacity="0"
     inkscape:pagecheckerboard="0"
     inkscape:deskcolor="#505050"
     inkscape:document-units="mm"
     showgrid="false"
     inkscape:zoom="1.4054833"
     inkscape:cx="415.87119"
     inkscape:cy="1315.9175"
     inkscape:window-width="1512"
     inkscape:window-height="945"
     inkscape:window-x="0"
     inkscape:window-y="37"
     inkscape:window-maximized="0"
     inkscape:current-layer="layer1" /><defs
     id="defs2"><rect
       x="531.40249"
       y="324.55911"
       width="144.6222"
       height="39.238581"
       id="rect2387" /><rect
       x="155.83322"
       y="340.8151"
       width="57.736768"
       height="26.345904"
       id="rect1702" /><rect
       x="152.46991"
       y="58.857871"
       width="159.19653"
       height="36.435825"
       id="rect1427" /><inkscape:path-effect
       effect="bspline"
       id="path-effect1423"
       is_visible="true"
       lpeversion="1"
       weight="33.333333"
       steps="2"
       helper_size="0"
       apply_no_weight="true"
       apply_with_weight="true"
       only_selected="false" /><rect
       x="142.88934"
       y="60.331054"
       width="170.40877"
       height="194.75287"
       id="rect554" /><clipPath
       clipPathUnits="userSpaceOnUse"
       id="clipPath788"><rect
         style="fill:#ffffff;stroke-width:0.614479;stroke-linecap:round;stroke-linejoin:round;stroke-opacity:0.962025;paint-order:stroke markers fill"
         id="rect790"
         width="103.0098"
         height="92.15033"
         x="42.817322"
         y="-61.123283"
         ry="0" /></clipPath><clipPath
       clipPathUnits="userSpaceOnUse"
       id="clipPath1355"><use
         x="0"
         y="0"
         xlink:href="#g1351"
         id="use1357" /></clipPath><mask
       maskUnits="userSpaceOnUse"
       id="mask1359"><rect
         style="opacity:0.525275;fill:#ffffff;stroke-width:0.584999;stroke-linecap:round;stroke-linejoin:round;stroke-opacity:0.962025;paint-order:stroke markers fill"
         id="rect1361"
         width="84.344406"
         height="108.33892"
         x="13.815031"
         y="-10.179497" /></mask><filter
       inkscape:collect="always"
       style="color-interpolation-filters:sRGB"
       id="filter1431"
       x="-0.013257633"
       y="-0.048979595"
       width="1.0265153"
       height="1.0979592"><feGaussianBlur
         inkscape:collect="always"
         stdDeviation="0.10896427"
         id="feGaussianBlur1433" /></filter><filter
       inkscape:collect="always"
       style="color-interpolation-filters:sRGB"
       id="filter1435"
       x="-0.0077317832"
       y="-0.0090643781"
       width="1.0154636"
       height="1.0181288"><feGaussianBlur
         inkscape:collect="always"
         stdDeviation="0.84939207"
         id="feGaussianBlur1437" /></filter><filter
       inkscape:collect="always"
       style="color-interpolation-filters:sRGB"
       id="filter1439"
       x="-0.011066268"
       y="-0.11419795"
       width="1.0221325"
       height="1.2283959"><feGaussianBlur
         inkscape:collect="always"
         stdDeviation="0.60004612"
         id="feGaussianBlur1441" /></filter><rect
       x="152.46991"
       y="58.857872"
       width="159.19653"
       height="36.435825"
       id="rect1427-2" /><filter
       inkscape:collect="always"
       style="color-interpolation-filters:sRGB"
       id="filter1439-7"
       x="-0.011066268"
       y="-0.11419795"
       width="1.0221325"
       height="1.2283959"><feGaussianBlur
         inkscape:collect="always"
         stdDeviation="0.60004612"
         id="feGaussianBlur1441-1" /></filter><rect
       x="155.83322"
       y="340.81509"
       width="57.736767"
       height="26.345903"
       id="rect1702-7" /></defs><g
     inkscape:label="Layer 1"
     inkscape:groupmode="layer"
     id="layer1"><rect
       style="fill:#d35f5f;stroke-width:0.584999;stroke-linecap:round;stroke-linejoin:round;stroke-opacity:0.962025;paint-order:stroke markers fill"
       id="rect234"
       width="49.344646"
       height="86.726959"
       x="35.792198"
       y="13.350645"
       inkscape:export-filename="img_back.png"
       inkscape:export-xdpi="96"
       inkscape:export-ydpi="96" /><g
       id="g1353"
       clip-path="url(#clipPath1355)"
       mask="url(#mask1359)"
       transform="matrix(0.33625149,0,0,0.44853288,32.795332,37.350414)"
       style="mix-blend-mode:normal;filter:url(#filter1435)"><g
         inkscape:label="Clip"
         id="g1351"><path
           style="fill:#000000;stroke-width:0.264583"
           d="m 19.368936,202.5271 -0.124672,-0.12467 -4.351197,-0.27821 -4.351194,-0.27821 -1.9843746,-0.24802 -1.984375,-0.24803 -2.910416,-0.28541 -2.91041704,-0.2854 -3.30729096,-0.24609 -3.307292,-0.24608 -4.8245004,-0.52858 -4.824497,-0.52857 -0.59946,-0.38098 -0.599459,-0.38097 -2.778125,-0.27858 -2.778125,-0.27858 -2.38125,-0.16284 -2.38125,-0.16284 -1.719791,-0.31875 -1.719792,-0.31876 0.08622,-0.78392 0.08622,-0.78393 0.100301,-0.1003 0.100301,-0.1003 2.062437,0.29852 2.062438,0.29852 3.704166,0.25534 3.704167,0.25535 4.101041,0.40201 4.101042,0.40202 3.1749994,0.28975 3.175,0.28975 1.058334,0.0715 1.058333,0.0715 2.77812496,0.18696 2.77812504,0.18696 3.042708,0.36344 3.042708,0.36343 1.9843746,0.16498 1.984375,0.16498 4.762499,0.49919 4.7625,0.49919 4.7625,0.41069 4.7625,0.4107 2.778125,0.25836 2.778124,0.25836 3.439584,0.28384 3.439583,0.28383 3.175,0.21415 3.174998,0.21414 -16.029337,0.0376 -16.029341,0.0376 z m 49.24898,-0.042 0.66145,-0.0874 8.59896,-0.53773 8.59896,-0.53773 5.68854,-0.39713 5.68854,-0.39713 8.995844,-0.65293 8.99583,-0.65294 8.06979,-0.54102 8.06979,-0.54101 5.15938,-0.37684 5.15937,-0.37684 4.23333,-0.28605 4.23334,-0.28604 9.12812,-0.64605 9.12813,-0.64605 10.31875,-0.77592 10.31874,-0.77593 3.83646,-0.28024 3.83646,-0.28024 3.57188,-0.288 3.57187,-0.288 3.83646,-0.52498 3.83646,-0.52499 2.07853,-0.37084 2.07853,-0.37083 0.12513,-0.12512 0.12512,-0.12513 0.17759,-1.54461 0.1776,-1.5446 -0.047,-3.58364 -0.047,-3.58364 -1.0441,-1.14222 -1.04409,-1.14222 -3.8037,-0.35427 -3.8037,-0.35427 -3.30729,-0.27817 -3.30729,-0.27816 -3.175,-0.28826 -3.175,-0.28825 -1.45521,-0.20153 -1.45521,-0.20153 0.54475,-0.0389 0.54474,-0.0389 0.50856,-0.37187 0.50856,-0.37187 -0.699,0.13363 -0.699,0.13362 -0.45549,-0.2549 -0.45548,-0.25491 0.96108,-0.1803 0.96108,-0.1803 v -1.04634 -1.04634 h 1.05833 1.05833 v -1.05834 -1.05833 h 8.46667 8.46667 v 0.52917 0.52916 h 1.05833 1.05833 v -0.52916 -0.52917 h 1.05834 1.05833 v -0.52917 -0.52916 h 1.05833 1.05833 v -0.52917 -0.52917 h 0.52917 0.52917 v -1.05833 -1.05833 h 0.52916 0.52917 v -1.05834 -1.05833 h 0.52917 0.52916 v -1.05833 -1.05834 h 0.52917 0.52917 v -1.05833 -1.05833 h 0.52916 0.52917 v -2.11667 -2.11667 h 1.5875 1.5875 v -1.05833 -1.05833 h -0.52917 -0.52916 v -2.11667 -2.11667 h 0.52916 0.52917 v -1.05833 -1.05833 h 1.05833 1.05834 v -1.05834 -1.05833 h -0.52917 -0.52917 v -2.11667 -2.11666 h 0.52917 0.52917 v -1.05834 -1.05833 h 1.05833 1.05833 v -1.05833 -1.05834 h -0.52916 -0.52917 v -3.175 -3.175 h 0.52917 0.52916 v -2.11666 -2.11667 h 1.05834 1.05833 v 38.36458 38.36459 h -10.82416 -10.82417 l -0.16839,-2.31511 -0.16839,-2.3151 -0.37335,-0.84544 -0.37336,-0.84544 -1.9294,0.12777 -1.9294,0.12777 -2.45279,0.27446 -2.45279,0.27445 -0.8545,-0.0466 -0.85451,-0.0466 -0.31143,0.0268 -0.31145,0.0268 -1.5473,1.57149 -1.54731,1.5715 -0.78709,-0.0105 -0.78708,-0.0105 -1.5875,0.45332 -1.5875,0.45331 -1.71979,0.211 -1.7198,0.21099 -8.20208,0.30606 -8.20208,0.30606 -4.09653,0.24678 -4.09652,0.24678 -47.76181,-0.0396 -47.761804,-0.0396 z m 35.586454,-19.14793 -2.38125,-0.13229 1.53479,-0.15517 1.53479,-0.15518 0.43468,-0.43468 0.43469,-0.43469 -0.62653,-0.66691 -0.62653,-0.66691 0.50914,0.004 0.50914,0.004 0.30613,0.19479 0.30613,0.1948 0.23986,0.92563 0.23985,0.92563 h 0.38006 0.38005 l 0.0824,-0.57904 0.0824,-0.57904 0.5129,0.51289 0.5129,0.51291 h 0.67885 0.67885 l 0.51177,-0.2739 0.51178,-0.27389 v -0.52816 -0.52816 l -0.33073,-0.1275 -0.33073,-0.12749 -0.0582,-0.82401 -0.0581,-0.82401 0.50617,0.45808 0.50617,0.45807 0.16228,0.73888 0.16229,0.73888 0.48054,0.43489 0.48055,0.43489 0.13783,-0.52706 0.13782,-0.52706 -0.30264,-0.1119 -0.30264,-0.11191 0.30013,-0.31997 0.30012,-0.31996 -0.13839,-0.52922 -0.1384,-0.52923 -0.23271,0.3531 -0.23272,0.35309 -0.30818,-0.52916 -0.30817,-0.52917 -0.72497,-0.7276 -0.72496,-0.72761 h 0.12933 0.12933 l 0.57246,0.30637 0.57246,0.30637 0.35509,0.35509 0.35509,0.35509 h 0.2227 0.2227 l -0.29821,-0.79005 -0.29821,-0.79006 0.26582,-0.26582 0.26583,-0.26583 0.58453,0.40942 0.58454,0.40943 v 0.28198 0.28197 l -0.39687,-0.32937 -0.39688,-0.32938 v 0.14295 0.14295 l 0.67538,1.34465 0.67538,1.34466 h 0.14705 0.14706 l -0.16738,-0.66689 -0.16738,-0.66689 0.26887,-0.50239 0.26888,-0.50239 -0.22874,-0.0875 -0.22873,-0.0875 -0.66457,-1.32292 -0.66456,-1.32292 0.19386,-1.26894 0.19385,-1.26896 0.86331,-0.8907 0.86331,-0.89071 0.47042,-0.12302 0.47041,-0.12301 0.27614,0.17066 0.27613,0.17065 0.43511,1.2816 0.43512,1.2816 -0.34285,1.16115 -0.34285,1.16114 h -0.33911 -0.33911 v -0.39687 -0.39688 h -0.66713 -0.66713 l -0.29781,0.65363 -0.29781,0.65362 0.36963,0.44569 0.36963,0.4457 0.85139,0.35589 0.8514,0.35589 h 0.34833 0.34832 l 0.47731,-0.80801 0.4773,-0.808 0.29081,0.0969 0.29081,0.0969 0.47956,-0.47955 0.47956,-0.47956 0.59531,-0.004 0.59531,-0.004 0.59531,-0.15954 0.59532,-0.15954 v -0.44556 -0.44556 l -0.33073,-0.71214 -0.33073,-0.71214 -0.46302,-0.002 -0.46302,-0.002 v -0.23219 -0.23219 l 0.39687,-0.32937 0.39688,-0.32938 0.3935,0.32658 0.39351,0.32658 0.41288,-0.15844 0.41288,-0.15844 -0.17437,-0.92949 -0.17438,-0.9295 h 0.26605 0.26605 l 0.84971,0.79375 0.84971,0.79375 h 0.22099 0.22099 l 0.17777,-0.28763 0.17777,-0.28764 -0.29445,-0.29445 -0.29445,-0.29444 v -0.25474 -0.25473 l 1.04774,1.1014 1.04773,1.1014 h 0.10199 0.10199 l -0.32174,-1.25677 -0.32175,-1.25677 0.28225,-0.17998 0.28224,-0.17997 0.47728,0.25543 0.47727,0.25543 v 0.37511 0.37512 l 0.31105,0.68267 0.31104,0.68267 0.54885,-0.0749 0.54885,-0.0749 0.0796,1.52881 0.0796,1.52881 -1.07176,1.06111 -1.07176,1.0611 v 0.35425 0.35426 l 0.37996,0.31533 0.37996,0.31534 0.74452,0.2129 0.74452,0.2129 -0.67737,0.27226 -0.67737,0.27226 -2.49763,0.3056 -2.49763,0.3056 -3.43959,-0.15565 -3.43958,-0.15565 -1.12448,-0.14051 -1.12448,-0.14052 v 0.41309 0.41309 l 0.0447,0.0661 0.0447,0.0661 -0.29691,0.55478 -0.29691,0.55478 0.29645,0.29644 0.29644,0.29644 -0.50726,0.16496 -0.50727,0.16496 -0.52916,0.22452 -0.52917,0.22452 -3.04271,0.0822 -3.04271,0.0822 z m -85.064148,-0.94809 5.29e-4,-0.55121 0.184047,-0.18405 0.184047,-0.18405 0.0501,-0.32307 0.0501,-0.32307 0.821153,-1.78594 0.821152,-1.78593 h 0.252003 0.252005 l 0.176054,0.28486 0.176053,0.28486 -0.805767,1.62569 -0.805767,1.6257 0.225954,0.27225 0.225954,0.27226 0.03914,0.26458 0.03914,0.26459 0.578667,-0.0739 0.578671,-0.0739 0.09817,-0.28672 0.09817,-0.28673 0.221538,0.35846 0.221538,0.35845 0.328518,-0.32851 0.328596,-0.32852 h 0.211667 0.211667 v 0.64268 0.64268 l -2.381859,0.0849 -2.381856,0.0849 5.29e-4,-0.55122 z m 5.702615,0.0882 0.181417,-0.59532 0.36558,-0.4177 0.36558,-0.41771 v -0.5901 -0.59009 l 0.266451,0.16468 0.266454,0.16467 0.168976,-0.44034 0.168976,-0.44035 -0.369281,-0.2351 -0.369285,-0.2351 -0.344471,0.12648 -0.344472,0.12648 0.168302,-0.27232 0.168298,-0.27231 0.506902,0.16088 0.5069,0.16089 v -0.30132 -0.30131 l 0.440973,0.44097 0.44097,0.44098 v 0.81042 0.81043 l -0.736084,0.63315 -0.736084,0.63315 0.144013,0.14401 0.14401,0.14401 1.010997,-0.008 1.010996,-0.008 1.190625,-0.0423 1.190625,-0.0423 v 0.0635 0.0635 l 1.383678,0.0546 1.383676,0.0545 0.156726,-0.49379 0.156726,-0.4938 0.245536,0.15175 0.245533,0.15174 v 0.47586 0.47587 l -1.626312,0.16998 -1.626311,0.16998 H 27.815438 24.66142 l 0.181417,-0.59531 z m 68.249029,0.42202 -0.52916,-0.1119 -0.59532,-0.12703 -0.59531,-0.12703 v -0.37081 -0.37081 l -0.79375,-0.17434 -0.79375,-0.17434 v -0.23425 -0.23425 l 0.51311,-0.27461 0.51311,-0.27461 0.16396,0.26531 0.16397,0.26529 h 0.91043 0.91042 v 0.28349 0.28348 l 0.33073,0.31183 0.33073,0.31183 0.59531,0.0828 0.59531,0.0828 v -0.30011 -0.30012 l 0.39764,-0.39763 0.39764,-0.39763 0.10943,0.35038 0.10943,0.35039 0.15943,0.72761 0.15943,0.7276 -1.26181,-0.0307 -1.26181,-0.0307 z m -57.94526,-0.64528 0.192667,-0.63664 0.376224,-0.79375 0.376221,-0.79375 0.385363,-0.50985 0.385366,-0.50985 0.146365,0.14636 0.146365,0.14637 -0.464016,0.97305 -0.464018,0.97306 0.281342,0.44876 0.281342,0.44877 1.229667,0.0806 1.229669,0.0806 v -0.25431 -0.25431 l 0.559194,0.14624 0.559192,0.14623 -0.303919,-0.56788 -0.303919,-0.56788 h 0.406186 0.406183 v 0.2359 0.2359 l 0.689586,0.17308 0.689589,0.17307 0.360383,-0.47512 0.360384,-0.47512 0.569754,-1.19015 0.569751,-1.19015 0.580067,-0.53758 0.580067,-0.53759 0.459409,0.53711 0.459407,0.53711 -0.160904,-1.00956 -0.160906,-1.00956 0.447064,-1.17062 0.447064,-1.17062 -0.320501,-1.62907 -0.3205,-1.62908 0.29614,-1.747 0.296143,-1.74699 0.279244,-1.45521 0.279244,-1.45521 -0.09139,-0.92604 -0.09139,-0.92604 0.02331,-4.89479 0.02331,-4.89479 0.836594,-2.41265 0.836592,-2.41266 v -0.89473 -0.89474 l 0.416448,-1.85199 0.416447,-1.85198 0.10042,-1.45521 0.10041,-1.45521 0.1315,-2.24896 0.13149,-2.24895 0.18106,-0.99862 0.18105,-0.99861 0.22892,-0.14148 0.22892,-0.14148 v -0.59215 -0.59215 l 1.09733,-1.04588 1.09733,-1.04588 -0.16942,0.47978 -0.16941,0.47978 0.44428,0.84313 0.44429,0.84314 0.16663,1.24714 0.16663,1.24714 -0.41435,0.17372 -0.41435,0.17372 0.8876,0.37714 0.8876,0.37714 -0.13516,0.51684 -0.13515,0.51684 0.23974,0.14817 0.23975,0.14817 -0.0209,0.44741 -0.0209,0.4474 -0.13714,-0.34177 -0.13713,-0.34177 -0.31387,0.26049 -0.31388,0.26049 -0.37098,-0.22928 -0.37099,-0.22929 0.34611,-0.41703 0.34611,-0.41705 h -0.26458 -0.26458 l -0.3049,0.36738 -0.3049,0.36738 0.37793,1.81544 0.37793,1.81543 -0.43616,0.49954 -0.43615,0.49953 -0.81819,0.34649 -0.81819,0.34648 0.0575,0.87377 0.0575,0.87377 -0.28698,0.52917 -0.28697,0.52917 -0.0497,2.24895 -0.0497,2.24896 -0.13353,0.86784 -0.13353,0.86784 -0.31438,0.37879 -0.31437,0.3788 0.0901,3.64816 0.0901,3.64815 0.18923,0.26459 0.18924,0.26458 0.80295,0.96097 0.80295,0.96097 v 0.23876 0.23875 l 0.72761,0.41699 0.7276,0.41699 0.79375,-0.22905 0.79375,-0.22905 0.52917,0.23169 0.52916,0.23169 1.38907,0.40684 1.38906,0.40684 v -0.22243 -0.22242 l 0.51216,-0.16256 0.51216,-0.16255 0.0832,-0.35806 0.0831,-0.35807 0.99219,0.3988 0.99219,0.39879 v 0.23628 0.23629 h -0.35251 -0.35251 l -1.75566,1.12448 -1.75566,1.12448 -0.008,0.3129 -0.008,0.3129 0.52917,0.16795 0.52916,0.16795 0.52917,-0.16795 0.52917,-0.16795 v -0.26596 -0.26596 l 0.69714,0.54837 0.69714,0.54837 h 0.33288 0.33289 l 0.16453,0.42877 0.16453,0.42876 -0.59925,-0.20972 -0.59924,-0.20972 -1.32292,-0.0492 -1.32291,-0.0492 -0.98663,-0.19826 -0.98662,-0.19825 -1.22457,0.71764 -1.22456,0.71765 -1.69018,-0.181 -1.69018,-0.18101 -0.89994,0.29701 -0.899943,0.29701 -0.326921,0.78926 -0.326925,0.78926 0.167659,1.22319 0.167656,1.22319 0.396512,0.79482 0.396513,0.79483 v 0.36168 0.36168 l 1.190629,0.83923 1.19062,0.83923 v 0.21365 0.21365 l -0.59531,0.0201 -0.59531,0.0201 -0.92604,0.33277 -0.926048,0.33276 -0.291049,0.5773 -0.29105,0.57729 -0.946361,1.05419 -0.946362,1.05418 H 45.232503 44.56148 l -1.398852,0.55138 -1.398855,0.55137 -3.404388,0.15141 -3.404386,0.15141 0.192667,-0.63664 z m 21.30047,-2.30061 -0.66146,-0.19584 -0.62338,-1.25291 -0.62338,-1.2529 h -0.66283 -0.66284 l 0.17861,-0.95209 0.17862,-0.95209 -0.24159,0.14932 -0.2416,0.14931 -0.56903,-0.65445 -0.56903,-0.65444 v -0.39487 -0.39486 h 0.14968 0.14969 l 0.5157,0.27599 0.51569,0.276 0.15668,-0.40829 0.15667,-0.40828 h 0.26935 0.26935 l -0.15674,0.78369 -0.15674,0.78371 0.68569,0.81489 0.68569,0.8149 0.29787,-0.10886 0.29787,-0.10887 0.46723,0.40717 0.46723,0.40716 0.32652,-0.41249 0.32652,-0.4125 1.05834,-0.34864 1.05833,-0.34864 0.19844,-0.0444 0.19844,-0.0444 0.19843,-0.0334 0.19844,-0.0334 0.73157,-0.62918 0.73156,-0.62918 -0.16121,-0.49498 -0.16121,-0.49498 0.25751,0.36067 0.25752,0.36067 0.11985,-0.35955 0.11984,-0.35954 0.5075,-0.001 0.50749,-0.001 0.0369,-0.79375 0.0369,-0.79375 -0.12089,-0.46302 -0.12088,-0.46302 h -0.51964 -0.51965 l -0.17083,-0.46302 -0.17083,-0.46302 -0.26065,-0.17443 -0.26065,-0.17442 0.42378,-0.42378 0.42378,-0.42378 0.97897,0.66435 0.97897,0.66435 h 0.4706 0.47061 l 0.41851,-0.1606 0.41852,-0.1606 v -0.35542 -0.35542 l -0.37596,-0.21158 -0.37595,-0.21159 -0.37984,-1.10413 -0.37984,-1.10414 0.19993,-0.32348 0.19992,-0.32348 0.42958,0.16484 0.42958,0.16485 0.16571,0.46902 0.16572,0.46902 0.55589,0.63161 0.55588,0.63161 -0.33073,0.11804 -0.33072,0.11805 v 0.97741 0.97741 l -0.39071,0.55781 -0.3907,0.5578 -0.63414,0.15917 -0.63413,0.15915 -0.30513,0.73665 -0.30513,0.73665 0.0847,1.29903 0.0847,1.29904 0.35601,0.11867 0.35602,0.11868 -0.18504,-0.29941 -0.18504,-0.2994 0.6221,-0.23653 0.62211,-0.23652 0.386,-0.4672 0.386,-0.46721 v -0.55254 -0.55255 h 0.7635 0.76349 l 0.36563,-1.19063 0.36562,-1.19062 -0.15381,-0.88594 -0.1538,-0.88594 0.28524,0.17628 0.28524,0.17629 0.52538,1.02984 0.52539,1.02984 v 3.02495 3.02494 l 0.40402,0.15503 0.40401,0.15504 1.20857,-0.41032 1.20857,-0.41032 0.15131,0.1513 0.1513,0.1513 -0.50712,0.0403 -0.50712,0.0403 1.71979,0.20081 1.71979,0.20081 2.51355,0.17875 2.51354,0.17874 1.05693,-0.23301 1.05694,-0.23302 0.0794,-0.41225 0.0794,-0.41226 -0.93789,-1.12258 -0.93789,-1.12258 0.007,-0.30569 0.007,-0.3057 -1.52649,-1.36922 -1.52649,-1.36921 0.13009,-0.11889 0.13009,-0.11888 1.49857,0.12991 1.49857,0.12991 0.1303,0.49829 0.13031,0.4983 h 0.53473 0.53474 l 0.54837,-0.69714 0.54837,-0.69714 v -0.58331 -0.58331 l 0.68029,-0.30996 0.6803,-0.30997 -0.0858,-0.4601 -0.0858,-0.46011 -0.92527,-0.46662 -0.92526,-0.46661 0.59531,-0.15956 0.59531,-0.15956 v -0.23372 -0.23373 h -0.42556 -0.42555 l 0.18195,-0.72495 0.18195,-0.72496 0.30846,-0.19064 0.30847,-0.19064 -0.51789,-0.37869 -0.5179,-0.37869 0.35314,-0.4255 0.35314,-0.42551 h 0.54208 0.54209 l 0.49865,-0.45128 0.49866,-0.45127 0.51077,0.31898 0.51078,0.31899 h 0.13588 0.13588 v -0.41249 -0.41249 l 0.23636,0.14607 0.23636,0.14608 0.15526,-0.61858 0.15525,-0.61858 -0.51436,-1.43011 -0.51436,-1.43011 -0.01,0.23083 -0.01,0.23071 -0.39688,-0.32938 -0.39687,-0.32937 -0.33073,0.26784 -0.33073,0.26784 -0.7276,-0.004 -0.72761,-0.004 v -0.23151 -0.23151 h 0.23981 0.23982 l -0.14233,-0.54426 -0.14233,-0.54426 1.35773,-1.30867 1.35772,-1.30867 v -0.23134 -0.23134 l -0.37092,-0.30783 -0.37091,-0.30783 -0.16592,-0.66108 -0.16592,-0.66108 0.40454,-0.57756 0.40454,-0.57757 v -0.33801 -0.338 h -0.36683 -0.36683 l -0.17855,-1.19062 -0.17854,-1.19063 h -0.38066 -0.38067 l -10e-4,-0.7276 -0.001,-0.72761 -0.52428,0.8599 -0.52429,0.85989 h -0.32202 -0.32203 l -0.87986,0.8528 -0.87985,0.85279 -0.50288,-0.31405 -0.50288,-0.31405 -0.17157,0.78114 -0.17157,0.78114 -0.19071,0.11787 -0.19072,0.11786 -0.31031,-0.19178 -0.31032,-0.19178 0.30257,-1.04753 0.30256,-1.04753 0.71551,-0.79375 0.7155,-0.79375 0.25837,-0.79375 0.25837,-0.79375 0.39442,0.0683 0.39442,0.0683 0.47496,-1.05327 0.47496,-1.05328 0.26853,0.16597 0.26853,0.16596 -0.15889,-0.25709 -0.15889,-0.25709 0.40304,-1.16984 0.40304,-1.16983 -0.15051,-0.75255 -0.15051,-0.75255 -0.59754,-0.49799 -0.59754,-0.49799 -0.79375,0.13781 -0.79375,0.1378 -0.52917,-0.40322 -0.52916,-0.40322 0.29691,-0.008 0.29691,-0.008 0.16625,-1.03964 0.16624,-1.03964 0.95149,-1.00887 0.95148,-1.00886 -0.16699,-1.25879 -0.16698,-1.25879 h 0.34119 0.34119 l 0.60991,1.65365 0.60991,1.65365 0.38464,0.87665 0.38464,0.87664 0.2578,2.43065 0.25781,2.43064 0.28955,1.02645 0.28955,1.02646 -0.14002,0.53544 -0.14002,0.53544 0.35988,0.69593 0.35988,0.69594 0.44456,1.9755 0.44455,1.97551 0.1845,1.36154 0.18449,1.36155 0.38596,0.46483 0.38597,0.46482 0.0916,3.2019 0.0916,3.20189 -0.26443,1.45403 -0.26443,1.45402 0.27036,2.77812 0.27035,2.77813 0.001,1.98437 10e-4,1.98438 -0.2751,1.5875 -0.27511,1.5875 -0.1668,0.92604 -0.1668,0.92604 0.44184,-0.59531 0.44183,-0.59531 h 0.21342 0.21341 l 0.41577,0.41577 0.41578,0.41578 v 0.75923 0.75924 l -0.33073,0.21405 -0.33073,0.21405 -6.35,0.0274 -6.35,0.0274 -3.30729,0.43554 -3.30729,0.43555 -2.04573,0.39155 -2.04573,0.39156 -4.70114,0.1312 -4.70115,0.13119 -0.66146,-0.19583 z m -0.59979,-6.3346 -0.7321,-0.10724 0.14419,-0.2333 0.14419,-0.2333 -0.56965,-0.30486 -0.56965,-0.30487 -0.61937,0.33147 -0.61936,0.33148 -0.4059,-0.33687 -0.40589,-0.33686 v -0.23873 -0.23874 l 0.7276,-0.27832 0.72761,-0.27832 0.45943,0.28487 0.45943,0.28487 0.46661,-0.0209 0.46661,-0.0209 -0.33073,-0.13345 -0.33073,-0.13346 v -0.46099 -0.461 l 0.66229,-0.62219 0.66229,-0.62218 -0.0322,-0.28384 -0.0322,-0.28382 0.0314,-0.3129 0.0314,-0.3129 0.51177,-0.16243 0.51176,-0.16243 0.52919,0.4531 0.52919,0.45311 -0.56273,0.97776 -0.56273,0.97777 1.01421,0.89654 1.01422,0.89654 0.37922,0.14262 0.37922,0.14263 -0.0857,0.22002 -0.0857,0.22002 -1.07822,0.0679 -1.07822,0.0679 -0.50928,0.12174 -0.50928,0.12173 -0.73208,-0.10723 z m 50.806584,-4.39559 -0.7255,-1.14843 -0.38324,-2.22454 -0.38323,-2.22454 -0.44897,-2.91041 -0.44897,-2.91042 0.0701,-2.24896 0.0701,-2.24895 0.0623,-1.05834 0.0623,-1.05833 0.0447,-1.05833 0.0447,-1.05834 0.37943,0.52917 0.37944,0.52917 0.27361,0.31956 0.2736,0.31956 v 0.2537 0.2537 l 0.32473,0.10824 0.32472,0.10825 0.14525,4.08099 0.14525,4.08099 0.41409,0.75962 0.41409,0.75963 -0.36916,1.07149 -0.36916,1.0715 0.0444,2.6668 0.0444,2.6668 0.35324,0.85989 0.35325,0.8599 -0.18494,-5.3e-4 -0.18494,-5.3e-4 -0.7255,-1.14843 z m -31.979464,-6.1803 -0.69037,-0.10663 -0.33268,-0.71362 -0.33268,-0.71362 -0.23372,-0.45943 -0.23371,-0.45943 v -0.14092 -0.14093 l 0.66146,0.16602 0.66146,0.16601 v -0.45994 -0.45994 l 1.1657,1.02657 1.1657,1.02657 0.0249,0.56701 0.0249,0.567 -0.41852,0.1606 -0.41851,0.1606 -0.1768,-0.0396 -0.1768,-0.0396 -0.69037,-0.10663 z m 16.1091,-71.053137 -0.42512,-0.33073 -0.0917,-0.52715 -0.0917,-0.52715 -0.79051,-0.37584 -0.79051,-0.37584 -0.34226,-0.48111 -0.34226,-0.48112 -0.49124,0.30678 -0.49123,0.30679 0.14601,0.38049 0.14601,0.3805 -0.58196,-0.31145 -0.58195,-0.31145 -0.21295,-0.57922 -0.21295,-0.57923 0.12649,-1.0283 0.12649,-1.0283 -0.29775,0.18402 -0.29775,0.18402 -0.0209,0.5797 -0.0209,0.57969 -0.13346,-0.33073 -0.13345,-0.33073 h -0.37482 -0.37483 v -0.26458 -0.26458 h -0.26458 -0.26459 v 0.39687 0.39688 h -0.26458 -0.26458 v 0.48507 0.48507 l -0.1808,0.18079 -0.18079,0.18079 -0.34838,-0.82853 -0.34837,-0.82853 -0.002,-0.43264 -0.002,-0.43265 -0.5141,-0.77989 -0.51409,-0.77988 -0.27742,0.72966 -0.27741,0.72966 -0.27193,-0.16805 -0.27192,-0.16806 -0.28362,0.81359 -0.28362,0.8136 h -0.1803 -0.18029 l -0.3814,-0.52917 -0.3814,-0.52917 h -0.33847 -0.33846 l -0.029,-0.19843 -0.029,-0.19844 -0.0762,-0.92604 -0.0762,-0.92604 0.26835,-0.167 0.26836,-0.167 -0.316,-0.95748 -0.31577,-0.95748 h -0.24407 -0.24406 v 0.52916 0.52917 h -0.36602 -0.36601 l -0.13486,0.51568 -0.13485,0.51569 0.56701,0.40485 0.56702,0.40485 -0.41336,-0.13604 -0.41336,-0.13603 -0.34703,0.64842 -0.34702,0.64843 -0.53075,0.13879 -0.53075,0.13879 0.15462,0.40293 0.15461,0.40293 -0.98014,0.17652 -0.98015,0.17652 -0.26459,0.1917 -0.26458,0.19169 -0.85428,0.28725 -0.85427,0.28725 -0.91625,-0.14868 -0.91624,-0.14869 -0.53352,-0.49705 -0.53352,-0.49705 h -0.37567 -0.37567 l -0.38277,0.5765 -0.38278,0.57649 -0.69951,-0.51035 -0.69952,-0.51035 -0.008,-0.32142 -0.008,-0.32142 -0.53658,-0.28717 -0.53658,-0.28716 0.19562,-0.31746 0.19562,-0.31745 -0.70807,0.46302 -0.70806,0.46302 h -0.37788 -0.37787 l -0.1606,-0.41851 -0.1606,-0.41852 v -0.61037 -0.61037 l -0.99219,-0.19564 -0.99219,-0.19564 0.31587,-0.11548 0.31587,-0.11549 -0.13933,-0.36308 -0.13932,-0.36307 -0.38844,0.14906 -0.38844,0.14906 -0.63985,-0.6011 -0.63984,-0.6011 0.14006,-0.22662 0.14006,-0.22662 -0.65474,-0.24893 -0.65474,-0.24893 -0.18984,-0.59813 -0.18984,-0.59813 -0.30054,-0.300548 -0.30055,-0.300546 -0.28826,-0.108669 -0.28826,-0.108667 -1.37625,-1.580333 -1.37625,-1.580332 -0.68497,-1.25852 -0.68497,-1.258517 -0.46289,-0.146915 -0.46289,-0.146915 0.13597,-0.519965 0.13598,-0.519962 h -0.32375 -0.32375 l 0.15229,-0.396875 0.1523,-0.396875 -0.45472,-0.0088 -0.45472,-0.0088 -0.595308,-0.496628 -0.595312,-0.496631 v -0.288316 -0.28832 h -0.497001 -0.496769 l -0.316195,-0.380992 -0.316193,-0.380989 -0.555374,-0.08203 -0.555373,-0.08203 -0.101513,-0.30851 -0.101513,-0.308509 0.477663,-0.112869 0.477663,-0.112868 -0.744828,-0.306226 -0.744829,-0.306227 H 43.91273 43.319066 l -0.442508,-0.330729 -0.442508,-0.330729 0.193501,-0.287194 0.1935,-0.287198 0.529167,-0.300069 0.529166,-0.300072 -0.447405,-0.008 -0.447407,-0.008 -0.163521,0.264584 -0.16352,0.264583 H 42.276269 41.89501 v -0.374827 -0.374825 l -0.25485,-0.0882 -0.254852,-0.08819 -0.120713,-0.981217 -0.120711,-0.981216 -0.171434,-0.540139 -0.171434,-0.540136 0.216267,2.65e-4 0.216268,2.64e-4 1.214078,1.256382 1.214077,1.256382 0.166683,0.463021 0.166679,0.463021 h 0.39587 0.395869 l 0.292254,0.546079 0.292253,0.546078 -0.289584,0.348928 -0.289581,0.348924 1.22083,0.183073 1.22083,0.183076 -0.486587,0.368715 -0.486588,0.368713 0.573265,0.0084 0.573262,0.0084 0.09687,0.290605 0.09687,0.290608 1.314241,0.132357 1.314244,0.132356 -0.85533,-0.621401 -0.855318,-0.6214 -0.0046,-0.315606 -0.0046,-0.315605 -0.550164,-0.932458 -0.550164,-0.932458 0.168905,-0.273291 0.168902,-0.273291 h 0.647594 0.647594 l 0.575131,0.661459 0.57513,0.661458 0.28302,0.0074 0.28301,0.0074 0.77171,0.7864 0.7717,0.7864 h 0.24879 0.24879 l -0.14202,0.370096 -0.14202,0.370097 0.90747,0.105941 0.90746,0.105942 V 68.04962 67.432987 l -0.39688,-0.152294 -0.39687,-0.152297 V 66.75968 66.391113 h -0.41249 -0.41249 l 0.15687,-0.25382 0.15687,-0.253823 -0.33719,-0.539927 -0.33719,-0.53993 h -0.42452 -0.42451 l -0.43788,-0.483854 -0.43789,-0.483854 v -0.706771 -0.706771 h 0.44098 0.44097 l -0.14833,0.148328 -0.14833,0.148326 0.64543,0.645424 0.64542,0.645422 h 0.13098 0.13098 l 0.84918,0.595313 0.84918,0.595312 0.13229,0.132292 0.13229,0.132291 0.66146,0.0309 0.66146,0.03091 0.21858,-0.29549 0.21858,-0.295486 0.13783,0.341609 0.13782,0.341608 0.43734,-0.502197 0.43735,-0.502201 0.66146,-0.18747 0.66146,-0.187471 -0.39688,0.277863 -0.39687,0.277863 0.30928,0.004 0.30929,0.004 0.88134,-0.463021 0.88134,-0.463021 0.0887,-0.200085 0.0887,-0.200086 0.24199,0.149555 0.24199,0.149554 v -0.280197 -0.280199 h -0.27658 -0.27657 l 0.1809,-0.96429 0.1809,-0.96429 -0.36735,0.22133 -0.36735,0.221329 0.30823,-0.381519 0.30823,-0.381518 -0.004,-0.264584 -0.004,-0.264583 -0.23365,-0.436573 -0.23365,-0.436573 0.4299,-0.164968 0.4299,-0.164967 -0.16787,-0.167865 -0.16786,-0.167865 0.32843,-0.42122 0.32845,-0.42096 -0.46302,0.363125 -0.46302,0.363128 v -0.429274 -0.42927 h -0.40619 -0.40618 l 0.2853,-0.533093 0.2853,-0.533091 -0.40676,-0.156091 -0.40677,-0.156091 0.1352,-0.218754 0.1352,-0.218758 -0.53191,-0.372562 -0.53191,-0.372565 0.11869,-0.11869 0.11869,-0.118687 -0.3612,-1.048205 -0.36119,-1.048205 0.1945,-0.264583 0.19449,-0.264583 0.3216,-1.124691 0.32159,-1.124688 0.99662,-1.016752 0.99662,-1.016751 1.20184,-0.458989 1.20184,-0.458986 0.37054,0.07625 0.37054,0.07625 0.58955,-0.326315 0.58954,-0.326314 0.60108,0.112877 0.60108,0.112876 0.79375,0.189048 0.79375,0.18905 1.08203,0.523737 1.08202,0.52374 0.69249,1.067988 0.6925,1.067991 0.30731,1.480283 0.3073,1.480283 -0.32252,0.891902 -0.32251,0.891905 0.29377,0.293767 0.29376,0.293767 -0.59786,0.332031 -0.59787,0.332028 0.34635,0.0094 0.34634,0.0094 -0.15638,0.253029 -0.15638,0.253026 -0.45455,-0.145696 -0.45455,-0.145692 0.36067,0.257513 0.36067,0.257514 -0.36067,0.15662 -0.36067,0.156623 0.39688,-0.02365 0.39687,-0.02365 0.31554,0.03135 0.31554,0.03135 -0.10658,0.553437 -0.10659,0.553439 0.45251,-0.157213 0.4525,-0.157212 -0.50363,0.390244 -0.50364,0.390242 0.43749,0.167881 0.43749,0.167881 v 0.236275 0.236276 h -0.42927 -0.42927 l 0.32356,0.389874 0.32357,0.389874 0.89714,0.168304 0.89714,0.168304 -0.17135,0.277249 -0.17135,0.277252 0.55074,-0.144024 0.55075,-0.144023 -0.13054,0.340164 -0.13053,0.340167 0.33315,0.205899 0.33315,0.205899 0.10311,-0.309314 0.1031,-0.309314 0.50173,0.268518 0.50173,0.268515 0.53526,-0.334275 0.53526,-0.334274 v -0.311182 -0.311182 l 0.24438,-0.0882 0.24438,-0.08819 0.12826,-0.926041 0.12825,-0.926042 0.0242,-0.09854 0.0242,-0.09854 0.4053,0.336372 0.4053,0.33637 -0.26646,-0.700849 -0.26646,-0.70085 h 0.10179 0.1018 l -0.34337,-1.301652 -0.34337,-1.301652 0.63835,-0.160216 0.63834,-0.160213 -0.65418,-0.606279 -0.65419,-0.60628 0.50956,-0.36727 0.50957,-0.367274 -0.32485,-0.206364 -0.32484,-0.206362 0.36312,-0.004 0.36314,-0.004 -0.32938,-0.396875 -0.32938,-0.396875 h 0.3499 0.3499 l -0.3175,-0.3175 -0.3175,-0.3175 v -0.608604 -0.608542 h -0.28349 -0.28348 l 0.42476,-0.424754 0.42475,-0.424754 -0.17847,-0.562316 -0.17847,-0.562317 -0.52313,-0.707567 -0.52313,-0.707567 0.1772,-0.286708 0.17719,-0.286705 -0.47676,0.171416 -0.47677,0.171418 0.17874,-0.198848 0.17874,-0.198845 -0.69315,-0.777941 -0.69314,-0.777938 -0.33202,0.127404 -0.33201,0.127405 0.15474,-0.403246 0.15474,-0.403249 -0.49894,0.08599 -0.49895,0.08599 0.07,-0.396875 0.07,-0.396875 -0.40071,0.513591 -0.4007,0.513591 v -0.330762 -0.330766 l -0.22128,0.136757 -0.22129,0.136758 -0.91916,-0.866986 -0.91917,-0.866987 0.10091,-0.302731 0.10091,-0.302734 -0.70539,-0.177043 -0.7054,-0.177041 0.35587,-0.225538 0.35587,-0.225539 -0.44519,-0.004 -0.44519,-0.004 -0.15521,-0.489014 -0.1552,-0.489016 -0.70873,-0.322913 -0.70871,-0.322914 0.38307,-0.242353 0.38308,-0.242353 -0.26459,-0.03452 -0.26458,-0.03452 -0.43045,0.04158 -0.43045,0.04158 -0.16183,-0.42173 -0.16183,-0.42173 0.20804,0.128577 0.20804,0.128574 0.38424,-0.258156 0.38424,-0.25816 -0.39687,0.04238 -0.39688,0.04238 -0.43119,-0.03135 -0.4312,-0.03135 -0.99703,-1.565024 -0.99703,-1.565024 -0.10151,-1.014663 -0.1015,-1.014664 -0.0843,-1.322917 -0.0843,-1.322917 -0.0396,-0.381298 -0.0396,-0.381299 -0.38846,0.51359 -0.38846,0.513591 -0.008,-0.714457 -0.008,-0.714457 -0.37832,-0.211717 -0.37831,-0.211717 -0.41381,-0.793618 -0.4138,-0.793617 -0.002,-1.22446 -0.002,-1.224458 -0.38702,-0.926264 -0.38702,-0.926263 -0.40673,-0.156078 -0.40673,-0.156078 v -0.359058 -0.359058 l -0.66146,-0.621408 -0.66146,-0.621409 V 20.016615 19.77151 l 1.12448,0.129439 1.12448,0.12944 0.85262,0.148293 0.85262,0.148297 0.14573,-0.235805 0.14574,-0.235804 1.20351,-0.180481 1.20352,-0.180477 0.21516,-0.562412 0.21516,-0.562414 0.49339,-0.422804 0.49338,-0.422804 0.46302,-0.164206 0.46302,-0.164203 0.0186,-0.73591 0.0186,-0.735906 0.21759,0.529166 0.21759,0.529167 0.18841,-0.461502 0.18842,-0.4615 0.25467,0.157393 0.25467,0.157393 0.14534,-0.555787 0.14534,-0.555789 h 0.23372 0.23373 l 0.0185,-0.330729 0.0185,-0.330729 1.82939,-1.455208 1.82939,-1.455209 0.16075,-0.577699 0.16074,-0.577696 0.37262,0.142983 0.37261,0.142986 v -0.40744 -0.4073525 l 0.50906,-0.16157 0.50906,-0.161568 1.03349,-0.980742 1.03349,-0.980739 0.30627,-0.06506 0.30627,-0.06506 0.59858,-0.514218 0.59857,-0.51422 0.56157,-0.480822 0.56156,-0.480822 0.41826,-1.321151 0.41825,-1.32115 0.33522,-1.190625 0.33522,-1.19062505 -0.0289,-0.33073 -0.0289,-0.330729 h 0.26387 0.26387 l -0.16902,-0.72760395 -0.16901,-0.727604 0.22673,0.338237 0.22673,0.338238 0.31048,-0.681416 0.31047,-0.681416 v -0.388016 -0.388016 l 0.33073,-0.591722 0.33073,-0.591722 0.23233,-0.168857 0.23234,-0.168856 -0.20707,-0.335045 -0.20707,-0.335045 0.26413,0.16324 0.26412,0.16324 0.50436,-0.954723 0.50436,-0.954724 0.74622,-0.556115 0.74623,-0.556116 1.15006,0.04451 1.15006,0.04451 0.55852,0.298912 0.55852,0.298913 -0.18058,0.292188 -0.18059,0.292189 0.28719,-0.177488 0.28718,-0.177488 0.16619,0.268899 0.16618,0.268899 h -0.32785 -0.32785 l 0.80267,0.727605 0.80267,0.727604 -0.0484,0.583041 -0.0484,0.583041 0.21946,-0.135635 0.21946,-0.135635 0.0302,0.346344 0.0302,0.346344 0.088,0.749574 0.088,0.749574 0.24598,0.308759 0.24597,0.308759 -0.22594,1.45520895 -0.22595,1.45520805 -0.027,2.196344 -0.027,2.196342 0.29091,0.350526 0.29091,0.350525 -0.11799,2.87709 -0.118,2.8770885 -0.14359,0.396875 -0.14359,0.396875 -0.13174,1.058334 -0.13174,1.058333 -0.1267,0.661458 -0.12671,0.661459 -0.27946,2.116666 -0.27946,2.116667 0.14135,0.661458 0.14135,0.661459 0.23743,1.19444 0.23744,1.194443 -0.0781,1.851012 -0.0781,1.851014 -0.54532,1.197057 -0.54533,1.197057 -0.16399,0.65228 -0.16399,0.65228 -1.14542,1.190625 -1.14541,1.190625 -1.20997,1.013285 -1.20996,1.013288 -1.14275,0.756925 -1.14275,0.756926 -0.65157,0.875622 -0.65156,0.87562 0.0439,1.765742 0.0439,1.765739 0.3085,1.541553 0.3085,1.54155 -0.032,0.815027 -0.032,0.815026 0.68655,0.312814 0.68656,0.312814 0.28563,-0.176533 0.28564,-0.176535 -0.15909,0.257408 -0.15908,0.257405 0.84581,0.304991 0.84581,0.304987 1.9685,0.278411 1.9685,0.278408 0.14816,0.160565 0.14817,0.160562 -1.96229,-0.1871 -1.9623,-0.1871 -1.73217,-0.628748 -1.73218,-0.628745 -0.0838,0.08385 -0.0838,0.08385 -0.0964,0.763701 -0.0964,0.763699 -0.19564,1.852083 -0.19564,1.852083 -0.8937,2.223794 -0.8937,2.223794 0.0693,0.06139 0.0693,0.06139 1.38906,0.187036 1.38906,0.187037 v -0.454102 -0.454099 l 0.39901,0.33115 0.39901,0.33115 1.24024,-0.139796 1.24024,-0.139792 -0.51477,0.303689 -0.51477,0.303688 -2.50492,0.04066 -2.50492,0.04066 -0.0968,0.290446 -0.0968,0.290444 h 0.30553 0.30553 l -0.41577,0.415774 -0.41578,0.415774 -0.0331,0.245684 -0.0331,0.245684 -0.0546,0.198438 -0.0546,0.198437 -0.21335,0.79375 -0.21335,0.79375 -0.20474,0.264584 -0.20474,0.264583 0.0118,0.661458 0.0118,0.661459 -0.25217,1.190625 -0.25216,1.190625 0.42718,1.190625 0.42717,1.190625 0.71822,1.322916 0.71822,1.322917 0.32837,0.514945 0.32837,0.514945 1.44479,1.998597 1.44478,1.998596 0.21259,0.264583 0.21258,0.264584 0.6371,0.973534 0.6371,0.973535 0.50715,1.143128 0.50715,1.14313 1.98538,2.91042 1.98537,2.91042 1.09998,2.01695 1.09999,2.01694 v 0.29161 0.29161 l -0.70455,-0.26787 -0.70454,-0.26786 -0.27441,0.27441 -0.27449,0.27441 h -0.69026 -0.69026 z m -26.92809,-21.745624 0.39687,0.02747 0.52917,-0.31079 0.52916,-0.310788 0.79375,-0.217247 0.79375,-0.217244 0.38315,0.06673 0.38314,0.06673 0.34446,-0.47108 0.34446,-0.47108 v 0.284295 0.284295 l 0.51114,0.133665 0.51114,0.133665 0.98115,-0.666711 0.98116,-0.66671 -0.15774,0.255222 -0.15774,0.255225 h 0.3736 0.3736 l -0.12807,-0.207211 -0.12806,-0.207211 0.51523,-0.275746 0.51524,-0.275743 0.15485,0.328615 0.15485,0.328615 -0.0998,-0.742958 -0.0998,-0.742958 0.395,0.151577 0.39501,0.151577 -0.16057,-0.599244 -0.16056,-0.599244 -0.004,-0.639411 -0.004,-0.639408 -0.17409,0.174094 -0.17409,0.174093 -0.36835,-0.305705 -0.36836,-0.305705 -0.42701,0.427011 -0.42701,0.427014 0.34202,0.412117 0.34203,0.412115 -0.7284,-0.377901 -0.72841,-0.377899 -0.36243,0.139078 -0.36244,0.139081 0.1605,0.259688 0.16049,0.259691 -0.62503,-0.05212 -0.62504,-0.05212 -0.46302,0.02929 -0.46302,0.02929 -0.0209,0.463021 -0.0209,0.46302 -0.13346,-0.330729 -0.13345,-0.330729 h -0.26036 -0.26037 l 0.16746,0.595313 0.16745,0.595312 -0.24226,-0.348319 -0.24225,-0.348321 -0.37039,-0.05599 -0.37039,-0.056 -0.37569,-0.234402 -0.37569,-0.2344 0.15849,0.41302 0.15849,0.413022 -0.60061,0.114814 -0.6006,0.114813 -0.61668,-0.228124 -0.61667,-0.228121 -0.18609,0.301106 -0.18609,0.301107 -0.18098,-0.292833 -0.18098,-0.29283 0.19869,-0.330729 0.1987,-0.33073 -0.4626,0.375516 -0.46259,0.375517 0.0463,-0.243226 0.0463,-0.243223 -0.0407,-0.264584 -0.0407,-0.264583 -0.37812,0.661458 -0.37813,0.661459 -0.009,-0.426331 -0.009,-0.426331 -0.70078,0.133963 -0.70079,0.133964 0.2149,-0.369091 0.21489,-0.369091 -0.72648,0.764696 -0.72648,0.764699 0.35247,0.223438 0.35248,0.223438 -0.19844,0.03713 -0.19844,0.03712 -0.24253,0.03307 -0.24254,0.03307 -0.16827,0.168275 -0.16827,0.168272 0.70648,0.555726 0.70649,0.555725 0.23349,-0.144301 0.23349,-0.144301 v 0.368392 0.368393 l 0.33072,0.03848 0.33073,0.03848 0.66146,0.104143 0.66146,0.10414 0.46302,0.03377 0.46301,0.03377 0.0186,0.463021 0.0186,0.463021 0.17984,-0.402432 0.17984,-0.402434 0.39687,0.02747 z m 23.51451,-37.864269 0.80095,-0.673957 -0.13862,-0.361236 -0.13862,-0.361235 0.46356,-0.08929 0.46355,-0.08929 -0.46768,-0.467681 -0.46769,-0.46768 0.61887,-0.515704 0.61887,-0.515705 0.3003,-0.0088 0.3003,-0.0088 0.4383,-0.668933 0.4383,-0.66893 -0.18134,-0.293415 -0.18134,-0.293415 0.62386,-0.470575 0.62385,-0.470575 -0.38736,-0.749892 -0.38737,-0.749874 -0.31183,-0.33073 -0.31183,-0.330729 h -0.16902 -0.16902 l 0.18578,0.595313 0.18579,0.595312 0.25717,0.165365 0.25717,0.165364 -0.3055,0.18881 -0.3055,0.188812 -0.38004,-0.145833 -0.38003,-0.145833 0.0938,-1.591538 0.0939,-1.591537 0.43115,-0.658016 0.43115,-0.658017 v -0.406185 -0.406183 h 0.22789 0.2279 l -0.12645,0.661458 -0.12645,0.661458 h 0.14376 0.14376 l 0.35792,-0.727604 0.35793,-0.727604 -0.0859,-0.424056 -0.0859,-0.424058 -0.68889,0.131691 -0.68888,0.131689 0.18723,-0.302946 0.18723,-0.302945 h 0.51355 0.51355 v -0.242943 -0.242946 l 0.1606,-0.418512 0.1606,-0.418516 h -0.4408 -0.44079 l 0.16352,0.264584 0.16352,0.264583 h -0.22728 -0.22729 l -0.3175,-0.3175 -0.3175,-0.3175 v -0.332208 -0.332208 l 0.66146,-0.974715 0.66146,-0.974711 V 14.529178 14.33459 l -0.85989,-0.1901 -0.8599,-0.190101 0.33027,-0.129452 0.33028,-0.129453 -0.16138,-0.642998 -0.16138,-0.642996 0.30551,-0.368131 0.30553,-0.36813 -0.17222,-0.686176 -0.17222,-0.686176 0.1962,-0.4636105 0.1962,-0.463613 -0.0571,-1.013259 -0.0571,-1.013256 0.48478,-0.36739 0.48477,-0.36739 -0.34812,-0.0084 -0.34812,-0.0084 -0.57792,0.279521 -0.57792,0.279525 0.60808,-0.53071 0.60808,-0.530709 -0.74037,-0.381283 -0.74037,-0.381283 -0.34045,0.367123 -0.34045,0.36712 0.2743,0.512537 0.2743,0.512538 v 0.142121 0.142121 l -0.85989,0.238985 -0.8599,0.238984 0.63451,0.251942 0.63451,0.251939 -0.93032,0.574974 -0.93032,0.574971 h -0.2995 -0.2995 v 0.282414 0.2824125 l 0.52698,-0.1672585 0.52698,-0.167256 -0.19625,0.4801575 -0.19625,0.480153 -0.39438,0.595312 -0.39437,0.595312 h -0.33323 -0.33323 v 0.264584 0.264583 h 0.47625 0.47625 l 0.3175,-0.3175 0.3175,-0.3175 v 0.285105 0.285101 l -0.36956,0.306708 -0.36956,0.30671 0.131,0.500944 0.131,0.500946 -0.55519,0.346721 -0.55519,0.34672 v 0.415827 0.415825 l -0.53534,1.10803 -0.53535,1.10803 h -0.3907 -0.3907 v -0.145431 -0.145431 l 0.40367,-0.780611 0.40367,-0.780611 -0.20523,-0.01823 -0.20523,-0.01823 -0.6889,-0.09189 -0.68889,-0.09189 -1.09956,1.16845 -1.09955,1.168448 h -0.67456 -0.67456 l 0.15094,0.244226 0.15094,0.244229 0.78768,0.173003 0.78768,0.173003 0.16195,0.262036 0.16195,0.262038 -0.55579,0.145341 -0.55579,0.145341 v 0.233725 0.233725 h -0.36819 -0.36819 l -0.18196,0.724953 -0.18195,0.724955 -0.29923,0.184934 -0.29923,0.184935 0.51635,0.570558 0.51635,0.570559 -0.53078,0.437782 -0.53077,0.437782 0.004,0.705556 0.004,0.705554 0.10594,-0.105939 0.10594,-0.105939 0.60903,0.657153 0.60903,0.657157 h 0.27722 0.27721 l 0.004,0.859895 0.004,0.859896 0.15875,0.592336 0.15877,0.592339 0.2345,-0.144931 0.2345,-0.144931 v 0.56955 0.569553 l 0.53474,0.139837 0.53475,0.139841 -0.30256,0.364556 -0.30256,0.364559 h 0.58987 0.58988 l -0.13968,0.363989 -0.13968,0.36399 0.30981,-0.0088 0.30981,-0.0088 0.85989,0.04168 0.85988,0.04168 v 0.529166 0.529167 h 0.77345 0.77345 z m -41.177099,29.58356 -0.332378,-0.115218 0.131094,-0.212114 0.131093,-0.212111 -0.327883,0.0271 -0.327882,0.0271 -1.89384,-0.604506 -1.893839,-0.604507 -0.462272,-0.510802 -0.462273,-0.510805 h -0.724434 -0.724434 l -0.152297,-0.396875 -0.152294,-0.396875 h 0.434864 0.434863 l -0.455329,-0.46302 -0.455327,-0.463021 -0.329583,-0.482939 -0.329584,-0.482936 -1.124442,0.449911 -1.124439,0.449913 -0.146955,-0.146955 -0.146955,-0.146955 1.083971,-0.553 1.083975,-0.553003 -0.004,-0.32535 -0.004,-0.325353 -0.366882,-1.058333 -0.366882,-1.058333 -1.216634,-0.08064 -1.216636,-0.08064 v -0.28603 -0.286049 l 1.179809,0.161711 1.179812,0.161711 -0.166116,-0.456475 -0.166116,-0.456478 -0.76431,-0.886412 -0.76431,-0.886413 0.139703,-0.701087 0.1397,-0.701088 0.284003,-2.116667 0.284004,-2.116666 0.194628,-0.911249 0.194627,-0.911249 0.852075,-0.220795 0.852074,-0.220794 v -0.285327 -0.285327 l 0.371158,0.142428 0.371157,0.142425 0.433007,-0.316621 0.433006,-0.316622 0.487315,-1.848019 0.487315,-1.848017 0.312854,-0.79375 0.312854,-0.79375 0.667253,-0.699553 0.667252,-0.699556 1.234144,-0.333687 1.234143,-0.33369 0.270947,-0.206308 0.270944,-0.206309 0.985827,0.07822 0.985824,0.07822 v -0.360021 -0.360024 h 1.058333 1.058327 v 0.282413 0.282414 l 0.50724,-0.160994 0.50724,-0.160991 -0.14997,0.573501 -0.14998,0.573497 0.43649,0.244269 0.43648,0.244268 0.008,0.449874 0.008,0.449874 0.32231,0.420097 0.32232,0.420098 0.26458,-0.07361 0.26458,-0.07361 0.6343,0.800764 0.6343,0.800764 0.0995,0.903266 0.0995,0.903269 h -0.28643 -0.28643 l 0.14166,0.229222 0.14167,0.229225 -0.52293,0.473241 -0.52292,0.473245 v 0.309745 0.309747 l -0.61693,0.579573 -0.61693,0.579572 0.0341,0.463386 0.0341,0.463389 0.20991,0.339643 0.20991,0.339643 -0.68145,0.63155 -0.68146,0.631552 -0.24405,-0.436102 -0.24406,-0.436102 -0.0217,0.783172 -0.0217,0.783174 -0.009,0.783598 -0.009,0.783596 -0.40161,0.612939 -0.40162,0.612939 0.16157,0.261426 0.16157,0.261425 0.2463,-0.152223 0.2463,-0.15222 0.0314,0.478634 0.0313,0.478636 -0.049,0.35728 -0.0491,0.35728 0.32316,-0.199723 0.32316,-0.199723 -0.18164,0.293909 -0.18165,0.293908 -0.35465,-0.136092 -0.35464,-0.136088 0.1305,0.682678 0.1305,0.68268 0.29877,-0.247782 0.29876,-0.247782 0.0327,0.704937 0.0327,0.704935 -0.12087,-0.330729 -0.12087,-0.330729 h -0.24253 -0.24254 v 0.504396 0.504396 l -0.47072,-0.123097 -0.470723,-0.123098 -0.653753,0.585997 -0.653757,0.585994 0.463021,-0.16524 0.463021,-0.165241 v 0.256278 0.256281 h -0.214013 -0.214014 l -0.513591,0.410575 -0.51359,0.410575 0.595312,-0.163822 0.595313,-0.163822 v 0.274111 0.274109 l 0.423576,-0.162542 0.42358,-0.162541 0.233828,0.369281 0.23382,0.369284 0.004,0.179539 0.004,0.179538 -0.40632,0.406326 -0.406325,0.406323 0.04591,0.207889 0.04591,0.207885 -0.580859,0.296577 -0.580861,0.296577 0.41211,0.158139 0.412107,0.158141 v -0.247975 -0.247976 l 0.412081,0.158131 0.412087,0.158128 -0.17174,0.428879 -0.171743,0.428879 -0.07782,0.651383 -0.07782,0.651381 -0.266724,0.08891 -0.266724,0.08891 0.135062,0.516482 0.135062,0.51648 h -0.145926 -0.145925 l -0.722876,-0.274836 -0.722876,-0.274838 -0.154245,0.235164 -0.154244,0.235164 -0.332377,-0.115215 z M 31.65554,56.248405 31.443955,55.895051 29.724164,54.895029 28.004372,53.89501 27.935432,53.92974 27.866492,53.96447 27.273976,53.59599 26.68146,53.227511 24.732,51.974642 22.782537,50.721777 20.76325,48.682384 18.743961,46.642995 18.220774,45.669256 17.697584,44.695518 h -0.204419 -0.204417 v -1.170345 -1.17036 l 0.974124,-1.277035 0.974122,-1.277038 0.328869,-0.329703 0.328866,-0.329702 0.697304,-0.265116 0.697307,-0.265112 -0.163827,-0.265081 -0.163828,-0.265078 h 0.412488 0.412491 v -0.338465 -0.338466 l 0.554969,-0.389139 0.554966,-0.389138 0.213812,-0.546862 0.213813,-0.546862 2.779908,-1.371367 2.779905,-1.371367 h 0.257009 0.257008 l -0.05901,0.750231 -0.05902,0.750229 -0.190418,0.308104 -0.190418,0.308102 h 0.271894 0.271893 l -0.158353,0.41266 -0.15835,0.412658 0.584861,0.152945 0.584862,0.152945 -0.128784,0.492466 -0.128783,0.492466 0.239744,0.14817 0.239745,0.148169 V 37.03823 36.758031 h 0.292891 0.292891 l -0.169561,0.441868 -0.169561,0.441867 0.289568,0.178964 0.289568,0.178962 0.01582,1.145381 0.0158,1.145381 -0.428705,0.313479 -0.428707,0.313478 v 0.184883 0.184883 l 0.330729,-0.186722 0.330729,-0.186722 -0.330729,0.356317 -0.330729,0.356315 v 0.211666 0.211667 l 0.310198,-0.06615 0.310195,-0.06615 0.2941,1.005253 0.294103,1.00525 0.220358,-0.2115 0.220361,-0.211503 -0.184222,0.859896 -0.184221,0.859896 h 0.285604 0.285607 v 0.513551 0.513554 l 0.255919,0.158165 0.255915,0.158165 -0.113464,0.717344 -0.113464,0.717346 -0.13236,1.652183 -0.132361,1.652182 -0.274677,0.513236 -0.274674,0.513236 v 0.165302 0.165298 l 0.30317,-0.18737 0.303173,-0.18737 -0.183444,0.767069 -0.183446,0.767067 -0.130596,0.441092 -0.130598,0.441095 0.509852,-0.133329 0.509852,-0.133331 0.276863,-0.572347 0.27686,-0.572346 0.01791,0.346344 0.01791,0.346343 0.209698,-0.129601 0.209701,-0.129601 0.05929,0.778039 0.05928,0.778036 -0.431705,0.658866 -0.431704,0.658865 h -0.617885 -0.617881 l -0.211585,-0.353348 z m 200.40872,-60.5228375 -0.99219,-1.036285 v -1.058333 -1.058334 h -0.52916 -0.52917 v -1.058333 -1.058333 h -1.05833 -1.05834 v -1.0583335 -1.058333 h -0.52916 -0.52917 v -0.470366 -0.470365 l -0.52917,-0.453087 -0.52916,-0.453086 v -1.193215 -1.193215 h -1.05834 -1.05833 v -1.058333 -1.058333 h 0.52917 0.52916 v -1.058334 -1.058333 h -1.5875 -1.5875 v -1.058333 -1.058334 h 5.82084 5.82083 v 9.525 9.5250005 l -0.0661,-0.02205 -0.0661,-0.02205 -0.99219,-1.036284 z"
           id="path792" /></g></g><path
       style="opacity:0.525275;fill:#ffffff;stroke-width:0.584999;stroke-linecap:round;stroke-linejoin:round;stroke-opacity:0.962025;paint-order:stroke markers fill;filter:url(#filter1431)"
       d="m 83.203307,52.205995 c -1.53236,-2.323255 -3.064923,-4.646816 -4.474028,-4.770507 -1.409105,-0.123691 -2.694455,1.952644 -4.103295,2.101044 -1.408839,0.1484 -2.941371,-1.631316 -4.375181,-1.952799 -1.433811,-0.321484 -2.768598,0.815557 -3.880829,0.939283 -1.112232,0.123726 -2.002089,-0.766131 -2.892228,-1.65627"
       id="path1421"
       inkscape:path-effect="#path-effect1423"
       inkscape:original-d="m 83.203307,52.205995 c -1.532298,-2.323296 -3.064859,-4.646858 -4.597689,-6.970686 -1.285134,2.07668 -2.570485,4.153014 -3.856124,6.229125 -1.532327,-1.779521 -3.06486,-3.559236 -4.597686,-5.339249 -1.334574,1.137348 -2.66936,2.27439 -4.004437,3.411185 -0.88963,-0.889627 -1.779487,-1.779484 -2.669625,-2.669624" /><text
       xml:space="preserve"
       transform="matrix(0.26458333,0,0,0.26458333,-3.8561248,0.29662498)"
       id="text1425"
       style="font-style:normal;font-variant:normal;font-weight:bold;font-stretch:normal;font-size:17.3333px;line-height:0px;font-family:Arial;-inkscape-font-specification:'Arial, Bold';font-variant-ligatures:normal;font-variant-caps:normal;font-variant-numeric:normal;font-variant-east-asian:normal;white-space:pre;shape-inside:url(#rect1427);opacity:0.525275;fill:#ffffff;stroke-width:2.21102;stroke-linecap:round;stroke-linejoin:round;stroke-opacity:0.962025;paint-order:stroke markers fill;filter:url(#filter1439)"><tspan
         x="152.4707"
         y="63.637156"
         id="tspan2615">Albin Industries</tspan></text><text
       xml:space="preserve"
       transform="matrix(0.26458333,0,0,0.26458333,31.430491,0.20170902)"
       id="text1425-5"
       style="font-style:normal;font-variant:normal;font-weight:bold;font-stretch:normal;font-size:17.3333px;line-height:0px;font-family:Arial;-inkscape-font-specification:'Arial, Bold';font-variant-ligatures:normal;font-variant-caps:normal;font-variant-numeric:normal;font-variant-east-asian:normal;white-space:pre;shape-inside:url(#rect1427-2);opacity:0.525275;fill:#ffffff;stroke-width:2.21102;stroke-linecap:round;stroke-linejoin:round;stroke-opacity:0.962025;paint-order:stroke markers fill;filter:url(#filter1439-7)"><tspan
         x="152.4707"
         y="63.637156"
         id="tspan2617">Inc</tspan></text><path
       style="opacity:1;fill:#ffffff;stroke-width:0.795407;stroke-linecap:round;stroke-linejoin:round;stroke-opacity:0.962025;paint-order:stroke markers fill"
       id="path1696"
       sodipodi:type="arc"
       sodipodi:cx="59.451641"
       sodipodi:cy="87.001976"
       sodipodi:rx="13.666414"
       sodipodi:ry="7.3414688"
       sodipodi:start="0"
       sodipodi:end="0.0039318239"
       sodipodi:arc-type="slice"
       d="m 73.118055,87.001976 a 13.666414,7.3414688 0 0 1 -1.05e-4,0.02886 l -13.666309,-0.02886 z"
       inkscape:export-filename="but_rec.png"
       inkscape:export-xdpi="96"
       inkscape:export-ydpi="96" /><rect
       style="opacity:1;fill:#edc3c3;fill-opacity:1;stroke-width:1.03657;stroke-linecap:round;stroke-linejoin:round;stroke-opacity:0.962025;paint-order:stroke markers fill"
       id="rect1698"
       width="30.479052"
       height="14.682938"
       x="100.25925"
       y="83.203323"
       ry="7.3414688"
       inkscape:export-filename="but_rec.png"
       inkscape:export-xdpi="96"
       inkscape:export-ydpi="96" /><text
       xml:space="preserve"
       transform="matrix(0.41931506,0,0,0.53010342,42.301269,-89.375847)"
       id="text1700"
       style="font-style:normal;font-variant:normal;font-weight:bold;font-stretch:normal;font-size:17.3333px;line-height:0px;font-family:Arial;-inkscape-font-specification:'Arial, Bold';font-variant-ligatures:normal;font-variant-caps:normal;font-variant-numeric:normal;font-variant-east-asian:normal;white-space:pre;shape-inside:url(#rect1702);opacity:1;mix-blend-mode:normal;fill:#2b0000;stroke-width:2.21102;stroke-linecap:round;stroke-linejoin:round;stroke-opacity:0.962025;paint-order:stroke markers fill"><tspan
         x="155.83398"
         y="345.59419"
         id="tspan2619">REC</tspan></text><rect
       style="fill:#edc3c3;fill-opacity:1;stroke-width:1.03657;stroke-linecap:round;stroke-linejoin:round;stroke-opacity:0.962025;paint-order:stroke markers fill"
       id="rect1698-1"
       width="30.479052"
       height="14.682938"
       x="137.22572"
       y="83.277466"
       ry="7.3414688"
       inkscape:export-filename="but_mon.png"
       inkscape:export-xdpi="96"
       inkscape:export-ydpi="96" /><text
       xml:space="preserve"
       transform="matrix(0.22198799,0,0,0.27118346,22.431785,3.2868293)"
       id="text2385"
       style="font-style:normal;font-variant:normal;font-weight:bold;font-stretch:normal;font-size:30.8865px;line-height:0px;font-family:Arial;-inkscape-font-specification:'Arial, Bold';font-variant-ligatures:normal;font-variant-caps:normal;font-variant-numeric:normal;font-variant-east-asian:normal;white-space:pre;shape-inside:url(#rect2387);opacity:1;fill:#000000;fill-opacity:1;stroke-width:2.21102;stroke-linecap:round;stroke-linejoin:round;stroke-opacity:0.962025;paint-order:stroke markers fill"><tspan
         x="531.40234"
         y="333.07568"
         id="tspan2621">Monitor</tspan></text></g></svg>
